<svg xmlns="http://www.w3.org/2000/svg" viewBox="0 0 1200 630">
  <rect width="1200" height="630" fill="#080807"/>
  <g opacity=".22" stroke="#caa647" stroke-width="1">
    <path d="M0 80h1200M0 160h1200M0 240h1200M0 320h1200M0 400h1200M0 480h1200M0 560h1200"/>
    <path d="M100 0v630M200 0v630M300 0v630M400 0v630M500 0v630M600 0v630M700 0v630M800 0v630M900 0v630M1000 0v630M1100 0v630"/>
  </g>
  <rect x="80" y="78" width="1040" height="474" rx="10" fill="#14120f" stroke="#665728" stroke-width="2"/>
  <rect x="80" y="78" width="1040" height="56" rx="10" fill="#11100d"/>
  <circle cx="118" cy="106" r="8" fill="#caa647"/>
  <circle cx="146" cy="106" r="8" fill="#665728"/>
  <circle cx="174" cy="106" r="8" fill="#665728"/>
  <text x="96" y="224" fill="#caa647" font-family="Menlo, monospace" font-size="30">structure-first agent</text>
  <text x="96" y="314" fill="#f4eee6" font-family="Inter, Arial, sans-serif" font-size="72" font-weight="800">Understand code</text>
  <text x="96" y="394" fill="#f4eee6" font-family="Inter, Arial, sans-serif" font-size="72" font-weight="800">before tokens.</text>
  <text x="96" y="468" fill="#b8b09d" font-family="Inter, Arial, sans-serif" font-size="34">Local static analysis before billable model context.</text>
  <text x="96" y="522" fill="#caa647" font-family="Menlo, monospace" font-size="28">squeezyagent.com</text>
</svg>
