<svg xmlns="http://www.w3.org/2000/svg" viewBox="0 0 1200 630">
  <rect width="1200" height="630" fill="#0f1320"/>
  <rect width="1200" height="630" fill="url(#sky)"/>
  <defs>
    <linearGradient id="sky" x1="0" y1="0" x2="0" y2="1">
      <stop offset="0" stop-color="#12172a"/>
      <stop offset="0.7" stop-color="#0f1320"/>
    </linearGradient>
  </defs>
  <g opacity=".10" stroke="#565d78" stroke-width="1">
    <path d="M0 80h1200M0 160h1200M0 240h1200M0 320h1200M0 400h1200M0 480h1200M0 560h1200"/>
    <path d="M100 0v630M200 0v630M300 0v630M400 0v630M500 0v630M600 0v630M700 0v630M800 0v630M900 0v630M1000 0v630M1100 0v630"/>
  </g>
  <g fill="#e2e6f2" opacity=".55">
    <circle cx="980" cy="120" r="2"/>
    <circle cx="1080" cy="210" r="1.5"/>
    <circle cx="900" cy="300" r="1.5"/>
    <circle cx="1110" cy="430" r="2"/>
    <circle cx="1010" cy="520" r="1.5"/>
  </g>
  <text x="96" y="210" fill="#969cb8" font-family="Menlo, monospace" font-size="30" letter-spacing="2">coding agent</text>
  <text x="96" y="304" fill="#e2e6f2" font-family="Inter, Arial, sans-serif" font-size="60" font-weight="800">The CPU does the repetitive work.</text>
  <text x="96" y="384" fill="#f2c75c" font-family="Inter, Arial, sans-serif" font-size="60" font-weight="800">Your tokens do the thinking.</text>
  <text x="96" y="456" fill="#cdd3e6" font-family="Inter, Arial, sans-serif" font-size="34">15 languages. 27 providers. Bring your own model.</text>
  <text x="96" y="540" fill="#969cb8" font-family="Menlo, monospace" font-size="28">☽ squeezyagent.com</text>
</svg>
